#!OML:ASF F:\VICON\USERDATA\INSTALL\rory3\rory3.ASF
:FULLY-SPECIFIED
:DEGREES
1294
root -1.77865 25.0669 -2.85679 356.292 10.0724 -6.88635
lowerback 6.86124 2.34124 -9.47239
upperback 2.22054 2.36812 -6.14725
thorax -1.65134 1.1931 -1.2942
lowerneck -2.24842 2.22191 -5.89215
upperneck 31.8921 1.72137 8.97498
head 10.3336 1.09787 4.4519
rclavicle -8.34896e-015 3.18055e-014
rhumerus -29.6212 -5.16988 -71.5798
rradius 41.2392
rwrist 4.47722
rhand -24.2 1.92811
rfingers 7.12502
rthumb 2.28417 -28.0394
lclavicle -8.34896e-015 3.18055e-014
lhumerus -25.5613 19.2224 66.1828
lradius 23.948
lwrist -2.44957
lhand -26.4488 24.8723
lfingers 7.12502
lthumb 0.112313 54.852
rfemur -23.9623 26.2943 17.1278
rtibia 28.9713
rfoot 12.0945 2.13394
rtoes -7.29314
lfemur -16.0124 7.19597 -14.3004
ltibia 51.6991
lfoot -19.0827 -12.4018
ltoes 5.58993
1295
root -1.78989 25.0314 -2.8343 356.41 10.4321 -6.93541
lowerback 6.79406 2.15617 -9.46374
upperback 2.16274 2.12963 -6.07146
thorax -1.66586 1.07658 -1.19663
lowerneck -1.9798 2.32509 -5.83233
upperneck 31.8244 1.87425 8.88911
head 10.2447 1.16224 4.41118
rclavicle 2.14687e-014 -7.63333e-014
rhumerus -29.7158 -4.83495 -71.6511
rradius 41.2762
rwrist 4.4367
rhand -24.182 1.82886
rfingers 7.12502
rthumb 2.30162 -28.1385
lclavicle 2.14687e-014 -7.63333e-014
lhumerus -25.741 18.7553 66.5015
lradius 24.2367
lwrist -0.885162
lhand -27.4201 26.7006
lfingers 7.12502
lthumb -0.825819 56.6787
rfemur -23.9861 26.8018 17.1319
rtibia 28.6246
rfoot 12.0108 2.43939
rtoes -7.98376
lfemur -16.4786 6.99894 -14.2162
ltibia 52.3353
lfoot -19.0847 -12.6711
ltoes 6.06832
1296
root -1.79678 24.997 -2.81059 356.517 10.8383 -6.83886
lowerback 6.72113 1.99973 -9.52404
upperback 2.17943 1.93334 -6.00932
thorax -1.60181 0.977368 -1.07793
lowerneck -1.93791 2.32601 -5.81755
upperneck 31.7908 1.95008 8.60603
head 10.2247 1.16874 4.30822
rclavicle -1.59028e-015 4.77083e-014
rhumerus -29.6675 -4.6535 -71.6066
rradius 41.1604
rwrist 4.45793
rhand -24.463 2.00576
rfingers 7.12502
rthumb 2.03018 -27.9643
lclavicle -1.59028e-015 4.77083e-014
lhumerus -25.8512 19.7857 66.2833
lradius 23.8525
lwrist -2.23755
lhand -26.7458 24.817
lfingers 7.12502
lthumb -0.174571 54.7967
rfemur -23.9221 27.1642 17.0122
rtibia 28.2691
rfoot 12.0829 2.75185
rtoes -8.29137
lfemur -16.8786 6.75973 -14.3058
ltibia 52.9748
lfoot -19.2753 -12.8083
ltoes 5.72576
1297
root -1.80552 24.9598 -2.78618 356.617 11.1654 -6.59038
lowerback 6.7479 1.946 -9.69854
upperback 2.18888 1.84929 -5.97741
thorax -1.60819 0.935908 -0.942759
lowerneck -1.98754 2.25989 -5.90054
upperneck 31.7613 1.90574 8.47503
head 10.2293 1.12689 4.27183
rclavicle 1.23246e-014 8.26944e-014
rhumerus -29.6635 -4.5774 -71.4479
rradius 40.9568
rwrist 4.46797
rhand -24.571 2.37897
rfingers 7.12502
rthumb 1.92594 -27.5921
lclavicle 1.23246e-014 8.26944e-014
lhumerus -25.9154 19.9098 66.5004
lradius 23.9238
lwrist -2.40065
lhand -26.474 24.7421
lfingers 7.12502
lthumb 0.0879419 54.7218
rfemur -23.8151 27.5306 16.7613
rtibia 27.8907
rfoot 12.3781 2.95572
rtoes -8.28091
lfemur -17.2302 6.59223 -14.5433
ltibia 53.6207
lfoot -19.5033 -12.9783
ltoes 5.39966
1298
root -1.81781 24.9172 -2.76366 356.688 11.4583 -6.51896
lowerback 6.82044 1.9093 -9.71381
upperback 2.19304 1.79141 -5.90169
thorax -1.64398 0.908325 -0.852532
lowerneck -2.03552 2.2435 -5.99829
upperneck 31.7335 1.87746 8.55328
head 10.2271 1.11326 4.31566
rclavicle -3.18055e-015 0
rhumerus -29.7182 -4.52735 -71.2873
rradius 40.8828
rwrist 4.36433
rhand -24.3406 2.76678
rfingers 7.12502
rthumb 2.14842 -27.2022
lclavicle -3.18055e-015 0
lhumerus -25.9003 18.8903 67.2668
lradius 24.4659
lwrist -0.363745
lhand -28.4704 28.3137
lfingers 7.12502
lthumb -1.84019 58.2855
rfemur -23.728 27.9113 16.7288
rtibia 27.5439
rfoot 12.6962 3.13219
rtoes -8.52578
lfemur -17.6518 6.44564 -14.5717
ltibia 54.3015
lfoot -19.622 -13.2191
ltoes 5.41887
1299
root -1.8302 24.8708 -2.74005 356.683 11.7623 -6.69003
lowerback 6.80397 1.83673 -9.49994
upperback 2.27783 1.72436 -5.74301
thorax -1.5417 0.870136 -0.794821
lowerneck -2.25569 2.21773 -6.12809
upperneck 31.7951 1.86542 8.56007
head 10.2923 1.09732 4.349
rclavicle -3.73715e-014 2.8625e-014
rhumerus -29.6346 -4.45815 -71.1582
rradius 40.8013
rwrist 4.30358
rhand -24.3379 2.7031
rfingers 7.12502
rthumb 2.151 -27.2658
lclavicle -3.73715e-014 2.8625e-014
lhumerus -25.8482 18.7243 67.6836
lradius 24.5872
lwrist 0.279687
lhand -31.1659 31.9956
lfingers 7.12502
lthumb -4.44332 61.929
rfemur -23.6184 28.2204 16.9933
rtibia 27.2551
rfoot 13.0186 3.47219
rtoes -8.74375
lfemur -18.0677 6.31871 -14.3231
ltibia 55.0185
lfoot -19.856 -13.5857
ltoes 4.94772
1300
root -1.8422 24.8259 -2.71548 356.701 12.0918 -6.74963
lowerback 6.80515 1.81686 -9.33827
upperback 2.37753 1.7221 -5.58371
thorax -1.43871 0.863839 -0.714402
lowerneck -2.49003 2.10498 -6.35753
upperneck 31.7325 1.76645 8.49535
head 10.3217 1.02409 4.36144
rclavicle 1.74931e-014 -4.45278e-014
rhumerus -29.5959 -4.47901 -70.8772
rradius 40.7126
rwrist 4.24002
rhand -24.4289 2.54834
rfingers 7.12502
rthumb 2.06312 -27.4214
lclavicle 1.74931e-014 -4.45278e-014
lhumerus -25.6589 18.9101 68.0792
lradius 24.4751
lwrist -0.109008
lhand -29.5677 28.7567
lfingers 7.12502
lthumb -2.89996 58.7167
rfemur -23.5292 28.4889 17.1204
rtibia 26.9972
rfoot 13.4241 3.80287
rtoes -8.46254
lfemur -18.4635 6.15384 -14.213
ltibia 55.7318
lfoot -20.2309 -13.7944
ltoes 3.35295
1301
root -1.84993 24.7843 -2.6932 356.76 12.4429 -6.58684
lowerback 6.96427 1.87201 -9.21655
upperback 2.4395 1.78903 -5.5322
thorax -1.46478 0.897132 -0.73702
lowerneck -2.82921 2.00269 -6.71089
upperneck 31.7719 1.61811 8.7533
head 10.4059 0.950375 4.51815
rclavicle 1.07344e-014 -7.63333e-014
rhumerus -29.667 -4.7942 -70.4879
rradius 40.6577
rwrist 4.30355
rhand -24.4179 2.69231
rfingers 7.12502
rthumb 2.0738 -27.2774
lclavicle 1.07344e-014 -7.63333e-014
lhumerus -25.4152 19.5216 68.2825
lradius 24.1342
lwrist -1.36006
lhand -28.8879 27.2833
lfingers 7.12502
lthumb -2.24349 57.2513
rfemur -23.4523 28.8164 16.9731
rtibia 26.7782
rfoot 13.7736 3.92734
rtoes -7.98033
lfemur -18.8305 5.95718 -14.3826
ltibia 56.4233
lfoot -20.5526 -13.7321
ltoes 2.34027
1302
root -1.85831 24.7404 -2.66838 356.785 12.8048 -6.54301
lowerback 7.06301 1.85278 -9.0074
upperback 2.51368 1.77352 -5.4827
thorax -1.43755 0.888025 -0.800093
lowerneck -3.07765 1.97843 -6.82846
upperneck 31.8014 1.57649 8.89549
head 10.4649 0.938632 4.59618
rclavicle 9.54166e-015 -5.725e-014
rhumerus -29.6212 -5.03244 -70.2873
rradius 40.515
rwrist 4.38066
rhand -24.3957 2.71574
rfingers 7.12502
rthumb 2.09525 -27.2537
lclavicle 9.54166e-015 -5.725e-014
lhumerus -25.2758 18.958 68.8428
lradius 24.5086
lwrist -0.228134
lhand -28.9944 28.2018
lfingers 7.12502
lthumb -2.34634 58.1687
rfemur -23.31 28.993 17.0274
rtibia 26.5739
rfoot 13.9512 4.10596
rtoes -7.91517
lfemur -19.1678 5.77205 -14.3989
ltibia 57.1033
lfoot -20.6617 -13.8796
ltoes 3.22114
1303
root -1.86876 24.695 -2.6412 356.793 13.1546 -6.55259
lowerback 7.04397 1.72897 -8.93324
upperback 2.55438 1.62386 -5.36891
thorax -1.3782 0.811289 -0.707245
lowerneck -3.0447 1.97336 -6.7869
upperneck 31.7793 1.6247 8.66993
head 10.4515 0.941469 4.50768
rclavicle -3.26007e-014 -3.49861e-014
rhumerus -29.4634 -4.79594 -70.2789
rradius 40.2621
rwrist 4.2366
rhand -24.4776 2.49343
rfingers 7.12502
rthumb 2.01614 -27.4768
lclavicle -3.26007e-014 -3.49861e-014
lhumerus -25.4265 18.9752 69.0021
lradius 24.6209
lwrist 0.0551911
lhand -28.9968 27.6341
lfingers 7.12502
lthumb -2.34863 57.6009
rfemur -23.107 29.3692 17.1279
rtibia 26.3341
rfoot 14.407 4.00918
rtoes -8.00187
lfemur -19.4984 5.5683 -14.3441
ltibia 57.7824
lfoot -20.5715 -14.225
ltoes 5.19619
